<svg aria-hidden="true" style="position: absolute; width: 0; height: 0; overflow: hidden;" version="1.1" xmlns="http://www.w3.org/2000/svg" xmlns:xlink="http://www.w3.org/1999/xlink">
<defs>
<symbol id="icon-edit" viewBox="0 0 32 32">
<path fill="#54adff" style="fill: var(--color1, #54adff)" d="M6.667 20.941l-0.707-0.707c-0.188 0.187-0.293 0.442-0.293 0.707h1zM20.941 6.667l0.707-0.707c-0.391-0.391-1.024-0.391-1.414 0l0.707 0.707zM25.333 11.059l0.707 0.707c0.391-0.391 0.391-1.024 0-1.414l-0.707 0.707zM11.059 25.333v1c0.265 0 0.52-0.105 0.707-0.293l-0.707-0.707zM6.667 25.333h-1c0 0.552 0.448 1 1 1v-1zM15.451 24.333c-0.552 0-1 0.448-1 1s0.448 1 1 1v-2zM24.784 26.333c0.552 0 1-0.448 1-1s-0.448-1-1-1v2zM7.374 21.648l14.274-14.274-1.414-1.414-14.275 14.275 1.414 1.414zM20.234 7.374l4.392 4.392 1.414-1.414-4.392-4.392-1.414 1.414zM24.626 10.352l-14.275 14.275 1.414 1.414 14.274-14.274-1.414-1.414zM11.059 24.333h-4.392v2h4.392v-2zM7.667 25.333v-4.392h-2v4.392h2zM16.94 10.668l4.392 4.392 1.414-1.414-4.392-4.392-1.414 1.414zM15.451 26.333h9.333v-2h-9.333v2z"></path>
</symbol>
<symbol id="icon-eye-closed" viewBox="0 0 32 32">
<path fill="none" stroke="#54adff" style="stroke: var(--color1, #54adff)" stroke-linejoin="round" stroke-linecap="round" stroke-miterlimit="4" stroke-width="2" d="M13.019 7.060c0.936-0.251 1.931-0.394 2.981-0.394 8.485 0 13.333 9.333 13.333 9.333s-1.105 2.128-3.184 4.351M5.799 11.704c-2.045 2.203-3.132 4.296-3.132 4.296s4.848 9.333 13.333 9.333c1.069 0 2.081-0.148 3.033-0.407M15.333 19.945c-1.446-0.243-2.628-1.26-3.106-2.611M16.667 12.055c1.675 0.281 2.997 1.603 3.278 3.278M4 4l24 24"></path>
</symbol>
<symbol id="icon-eye-open" viewBox="0 0 32 32">
<path fill="none" stroke="#54adff" style="stroke: var(--color1, #54adff)" stroke-linejoin="round" stroke-linecap="round" stroke-miterlimit="4" stroke-width="2" d="M2.667 16c0 0 4.848-9.333 13.333-9.333s13.333 9.333 13.333 9.333-4.849 9.333-13.333 9.333c-8.485 0-13.333-9.333-13.333-9.333z"></path>
<path fill="none" stroke="#54adff" style="stroke: var(--color1, #54adff)" stroke-linejoin="round" stroke-linecap="round" stroke-miterlimit="4" stroke-width="2" d="M16 20c2.209 0 4-1.791 4-4s-1.791-4-4-4c-2.209 0-4 1.791-4 4s1.791 4 4 4z"></path>
</symbol>
<symbol id="icon-female" viewBox="0 0 32 32">
<path fill="none"  stroke-linejoin="round" stroke-linecap="round" stroke-miterlimit="4" stroke-width="1.92" d="M16.33 17.28c3.535 0 6.4-2.865 6.4-6.4s-2.865-6.4-6.4-6.4c-3.535 0-6.4 2.865-6.4 6.4s2.865 6.4 6.4 6.4zM16.33 17.28v10.24M12.49 23.68h7.68"></path>
</symbol>
<symbol id="icon-filters" viewBox="0 0 32 32">
<path fill="none" stroke="#54adff" style="stroke: var(--color1, #54adff)" stroke-linejoin="miter" stroke-linecap="round" stroke-miterlimit="4" stroke-width="2" d="M18.667 6.667c0-1.473-1.194-2.667-2.667-2.667s-2.667 1.194-2.667 2.667M18.667 6.667c0 1.473-1.194 2.667-2.667 2.667s-2.667-1.194-2.667-2.667M18.667 6.667h8M13.333 6.667h-8M21.333 16c0 1.473 1.194 2.667 2.667 2.667s2.667-1.194 2.667-2.667c0-1.473-1.194-2.667-2.667-2.667s-2.667 1.194-2.667 2.667zM21.333 16h-16M10.667 25.333c0-1.473-1.194-2.667-2.667-2.667s-2.667 1.194-2.667 2.667c0 1.473 1.194 2.667 2.667 2.667s2.667-1.194 2.667-2.667zM10.667 25.333h16"></path>
</symbol>
<symbol id="icon-filters-3" viewBox="0 0 32 32">
<path fill="none" stroke="#54adff" style="stroke: var(--color1, #54adff)" stroke-linejoin="round" stroke-linecap="round" stroke-miterlimit="4" stroke-width="1.92" d="M6.090 5.76l6.4 10.24v7.68l7.68 3.84v-11.52l6.4-10.24h-20.48z"></path>
</symbol>
<symbol id="icon-heart" viewBox="0 0 32 32">
<path  stroke-linejoin="round" stroke-linecap="round" stroke-miterlimit="4" stroke-width="2" d="M5.775 16.063l10.225 10.603 10.225-10.603c1.137-1.179 1.775-2.777 1.775-4.444 0-3.471-2.714-6.285-6.061-6.285-1.607 0-3.149 0.662-4.286 1.841l-1.653 1.715-1.653-1.715c-1.137-1.179-2.678-1.841-4.286-1.841-3.347 0-6.061 2.814-6.061 6.285 0 1.667 0.639 3.266 1.775 4.444z"></path>
</symbol>
<symbol id="icon-location-1" viewBox="0 0 32 32">
<path fill="none" stroke="#54adff" style="stroke: var(--color1, #54adff)" stroke-linejoin="round" stroke-linecap="round" stroke-miterlimit="4" stroke-width="1.92" d="M26.57 14.72c0 5.655-4.585 10.24-10.24 12.8-5.655-2.56-10.24-7.145-10.24-12.8s4.585-10.24 10.24-10.24c5.655 0 10.24 4.585 10.24 10.24z"></path>
<path fill="none" stroke="#54adff" style="stroke: var(--color1, #54adff)" stroke-linejoin="round" stroke-linecap="round" stroke-miterlimit="4" stroke-width="1.92" d="M20.17 14.72c0 2.121-1.719 3.84-3.84 3.84s-3.84-1.719-3.84-3.84c0-2.121 1.719-3.84 3.84-3.84s3.84 1.719 3.84 3.84z"></path>
</symbol>
<symbol id="icon-logout" viewBox="0 0 32 32">
<path stroke-linejoin="round" stroke-linecap="round" stroke-miterlimit="4" stroke-width="2" d="M18.667 5.333h5.333c1.473 0 2.667 1.194 2.667 2.667v16c0 1.473-1.194 2.667-2.667 2.667h-5.333M4 16h16M4 16l5.333-5.333M4 16l5.333 5.333"></path>
</symbol>
<symbol id="icon-male" viewBox="0 0 32 32">
<path fill="none"  stroke-linejoin="round" stroke-linecap="round" stroke-miterlimit="4" stroke-width="1.92" d="M16.33 14.72c-3.535 0-6.4 2.865-6.4 6.4s2.865 6.4 6.4 6.4c3.535 0 6.4-2.865 6.4-6.4s-2.865-6.4-6.4-6.4zM16.33 14.72v-10.24M16.33 4.48l5.12 5.12M16.33 4.48l-5.12 5.12"></path>
</symbol>
<symbol id="icon-burger" viewBox="0 0 32 32">
<path fill="none" stroke="#FFC107" style="stroke: var(--color1, #FFC107)" stroke-linejoin="round" stroke-linecap="round" stroke-miterlimit="4" stroke-width="2" d="M5.333 9.333h21.333M5.333 16h21.333M5.333 22.667h21.333"></path>
</symbol>
<symbol id="icon-pawprint-1" viewBox="0 0 32 32">
<path   d="M20.482 19.149c-0.356-2.644-2.011-4.897-4.429-6.024s-5.208-0.948-7.462 0.479l-5.432 3.439c-0.901 0.571-1.58 1.399-1.964 2.394s-0.436 2.065-0.15 3.093c0.286 1.028 0.882 1.918 1.725 2.573s1.852 1.014 2.919 1.037l0.070 0.001c2.676 0.079 5.219 1.275 6.986 3.289 0.456 0.519 1.004 0.93 1.617 1.216 0.333 0.155 0.686 0.274 1.053 0.353 1.043 0.224 2.108 0.109 3.080-0.332s1.757-1.169 2.274-2.103c0.516-0.934 0.714-1.987 0.572-3.044l-0.857-6.372zM17.717 28.961c-1.236 0.562-2.668 0.254-3.563-0.766-1.064-1.213-2.364-2.177-3.801-2.848-1.436-0.67-3.010-1.045-4.622-1.081l-0.046-0.001c-1.338-0.049-2.473-0.942-2.833-2.236-0.363-1.308 0.164-2.674 1.31-3.401l5.432-3.439c1.712-1.084 3.829-1.22 5.665-0.364s3.093 2.566 3.363 4.574l0.857 6.372c0.181 1.346-0.528 2.628-1.763 3.19z"></path>
<path   d="M6.295 12.527c1.103 0.077 2.165-0.346 2.991-1.19 0.786-0.803 1.264-1.901 1.346-3.091s-0.241-2.342-0.909-3.246c-0.702-0.949-1.696-1.514-2.798-1.59-2.216-0.154-4.161 1.766-4.336 4.281-0.137 2.003 0.89 3.786 2.433 4.506 0.394 0.184 0.822 0.298 1.272 0.329zM4.461 7.821c0.103-1.482 1.151-2.621 2.336-2.539 0.214 0.015 0.422 0.069 0.618 0.161 0.302 0.141 0.576 0.369 0.8 0.673 0.403 0.546 0.597 1.257 0.546 2.002s-0.341 1.423-0.816 1.908c-0.435 0.444-0.975 0.668-1.52 0.63l-0.001 0c-1.184-0.081-2.064-1.353-1.963-2.835z"></path>
<path   d="M14.188 11.529c2.349 1.095 5.275-0.191 6.523-2.867s0.353-5.746-1.996-6.841c-2.349-1.095-5.275 0.191-6.523 2.868s-0.352 5.745 1.996 6.84zM17.923 3.521c1.411 0.658 1.9 2.609 1.089 4.348s-2.619 2.618-4.031 1.96-1.9-2.608-1.089-4.347c0.811-1.739 2.619-2.619 4.031-1.961z"></path>
<path   d="M20.992 16.152l0 0c0.305 0.288 0.647 0.518 1.014 0.689 1.713 0.799 3.964 0.33 5.495-1.289 0.881-0.932 1.401-2.109 1.463-3.315 0.065-1.262-0.371-2.404-1.23-3.217s-2.025-1.184-3.281-1.047c-1.201 0.131-2.347 0.716-3.227 1.648-1.858 1.966-1.963 4.896-0.234 6.531zM22.588 10.909c0.575-0.609 1.309-0.989 2.067-1.071 0.701-0.076 1.337 0.118 1.79 0.546s0.682 1.052 0.645 1.756c-0.039 0.761-0.378 1.516-0.953 2.124-1.148 1.215-2.878 1.45-3.857 0.525-0.978-0.925-0.84-2.665 0.308-3.88z"></path>
<path   d="M30.227 19.769l-0-0.001c-1.062-1.952-3.726-2.563-5.94-1.362-2.213 1.203-3.152 3.77-2.093 5.721 0.386 0.712 0.986 1.246 1.699 1.579 1.243 0.58 2.833 0.548 4.241-0.215 2.213-1.203 3.152-3.769 2.093-5.722zM27.239 23.842c-1.307 0.709-2.831 0.435-3.397-0.609-0.566-1.043 0.035-2.469 1.339-3.178 0.867-0.47 1.83-0.508 2.545-0.174 0.362 0.169 0.661 0.433 0.852 0.784 0.565 1.044-0.036 2.469-1.339 3.178z"></path>
</symbol>
<symbol id="icon-plus" viewBox="0 0 32 32">
<path fill="none" stroke="#54adff" style="stroke: var(--color1, #fef9f9)" stroke-linejoin="miter" stroke-linecap="round" stroke-miterlimit="4" stroke-width="2.6667" d="M16 26.667v-10.667M16 16v-10.667M16 16h10.667M16 16h-10.667"></path>
</symbol>
<symbol id="icon-plus-small" viewBox="0 0 32 32">
<path fill="none" stroke="none" style="stroke: var(--color1, #fef9f9)" stroke-linejoin="round" stroke-linecap="round" stroke-miterlimit="4" stroke-width="2" d="M16 9.333v13.333M9.333 16h13.333"></path>
</symbol>
<symbol id="icon-checkbox-round" viewBox="0 0 32 32">
<path fill="none" stroke="#54adff" style="stroke: var(--color1, #54adff)" stroke-linejoin="round" stroke-linecap="butt" stroke-miterlimit="4" stroke-width="2" d="M5.333 10.667c0-2.946 2.388-5.333 5.333-5.333h10.667c2.945 0 5.333 2.388 5.333 5.333v10.667c0 2.945-2.388 5.333-5.333 5.333h-10.667c-2.946 0-5.333-2.388-5.333-5.333v-10.667z"></path>
</symbol>
<symbol id="icon-search" viewBox="0 0 32 32">
<path fill="#54adff" style="fill: var(--color1, #54adff)" d="M25.96 27.374c0.391 0.391 1.024 0.391 1.414 0s0.391-1.024 0-1.414l-1.414 1.414zM23 14c0 4.971-4.029 9-9 9v2c6.075 0 11-4.925 11-11h-2zM14 23c-4.971 0-9-4.029-9-9h-2c0 6.075 4.925 11 11 11v-2zM5 14c0-4.971 4.029-9 9-9v-2c-6.075 0-11 4.925-11 11h2zM14 5c4.971 0 9 4.029 9 9h2c0-6.075-4.925-11-11-11v2zM27.374 25.96l-5.583-5.583-1.414 1.414 5.583 5.583 1.414-1.414z"></path>
</symbol>
<symbol id="icon-trash-2" viewBox="0 0 32 32">
<path stroke-linejoin="round" stroke-linecap="round" stroke-miterlimit="4" stroke-width="2" d="M24 8v16c0 1.473-1.194 2.667-2.667 2.667h-10.667c-1.473 0-2.667-1.194-2.667-2.667v-16M20 8v-1.333c0-1.473-1.194-2.667-2.667-2.667h-2.667c-1.473 0-2.667 1.194-2.667 2.667v1.333M5.333 8h21.333M13.333 13.333v8M18.667 13.333v8"></path>
</symbol>
<symbol id="icon-user-1" viewBox="0 0 32 32">
<path fill="none" stroke="#ffc107" style="stroke: var(--color2, #ffc107)" stroke-linejoin="round" stroke-linecap="round" stroke-miterlimit="4" stroke-width="1.7143" d="M25.143 27.429v-2.286c0-2.525-2.047-4.571-4.571-4.571h-9.143c-2.525 0-4.571 2.047-4.571 4.571v2.286M20.571 11.429c0 2.525-2.047 4.571-4.571 4.571s-4.571-2.047-4.571-4.571c0-2.525 2.047-4.571 4.571-4.571s4.571 2.047 4.571 4.571z"></path>
<path fill="none" stroke="#ffc107" style="stroke: var(--color2, #ffc107)" stroke-linejoin="miter" stroke-linecap="butt" stroke-miterlimit="4" stroke-width="1.7143" d="M16 0.857c8.363 0 15.143 6.78 15.143 15.143s-6.78 15.143-15.143 15.143c-8.363 0-15.143-6.78-15.143-15.143s6.78-15.143 15.143-15.143z"></path>
</symbol>
<symbol id="icon-arrow-left" viewBox="0 0 32 32">
<path fill="none" stroke="#54adff" style="stroke: var(--color1, #54adff)" stroke-linejoin="round" stroke-linecap="round" stroke-miterlimit="4" stroke-width="2" d="M5.333 16h21.333M5.333 16l8-8M5.333 16l8 8"></path>
</symbol>
<symbol id="icon-camera" viewBox="0 0 32 32">
<path fill="none" stroke="#54adff" style="stroke: var(--color1, #54adff)" stroke-linejoin="round" stroke-linecap="butt" stroke-miterlimit="4" stroke-width="2" d="M16 21.333c2.209 0 4-1.791 4-4s-1.791-4-4-4c-2.209 0-4 1.791-4 4s1.791 4 4 4z"></path>
<path fill="none" stroke="#54adff" style="stroke: var(--color1, #54adff)" stroke-linejoin="round" stroke-linecap="butt" stroke-miterlimit="4" stroke-width="2" d="M4 12c0-1.473 1.194-2.667 2.667-2.667h3.333c0.736 0 1.333-0.597 1.333-1.333s0.597-1.333 1.333-1.333h6.667c0.736 0 1.333 0.597 1.333 1.333s0.597 1.333 1.333 1.333h3.333c1.473 0 2.667 1.194 2.667 2.667v10.667c0 1.473-1.194 2.667-2.667 2.667h-18.667c-1.473 0-2.667-1.194-2.667-2.667v-10.667z"></path>
</symbol>
<symbol id="icon-check" viewBox="0 0 32 32">
<path fill="none" stroke="#54adff" style="stroke: var(--color1, #54adff)" stroke-linejoin="round" stroke-linecap="round" stroke-miterlimit="4" stroke-width="2" d="M26.667 9.333l-14.667 14.667-6.667-6.667"></path>
</symbol>
<symbol id="icon-checked-round" viewBox="0 0 32 32">
<path fill="none" stroke="#54adff" style="stroke: var(--color1, #54adff)" stroke-linejoin="round" stroke-linecap="round" stroke-miterlimit="4" stroke-width="2" d="M22.667 12l-9.333 9.333-4-4M10.667 26.667h10.667c2.945 0 5.333-2.388 5.333-5.333v-10.667c0-2.946-2.388-5.333-5.333-5.333h-10.667c-2.946 0-5.333 2.388-5.333 5.333v10.667c0 2.945 2.388 5.333 5.333 5.333z"></path>
</symbol>
<symbol id="icon-chevron-down" viewBox="0 0 32 32">
<path fill="none" stroke="#54adff" style="stroke: var(--color1, #54adff)" stroke-linejoin="round" stroke-linecap="round" stroke-miterlimit="4" stroke-width="2" d="M5.333 12l10.667 10.667 10.667-10.667"></path>
</symbol>
<symbol id="icon-chevron-up" viewBox="0 0 32 32">
<path fill="none" stroke="#54adff" style="stroke: var(--color1, #54adff)" stroke-linejoin="round" stroke-linecap="round" stroke-miterlimit="4" stroke-width="2" d="M26.667 20l-10.667-10.667-10.667 10.667"></path>
</symbol>
<symbol id="icon-clock" viewBox="0 0 32 32">
<path fill="none" stroke="#54adff" style="stroke: var(--color1, #54adff)" stroke-linejoin="round" stroke-linecap="round" stroke-miterlimit="4" stroke-width="1.92" d="M16.33 9.6v6.4l3.84 3.84M27.85 16c0 6.362-5.158 11.52-11.52 11.52s-11.52-5.158-11.52-11.52c0-6.362 5.158-11.52 11.52-11.52s11.52 5.158 11.52 11.52z"></path>
</symbol>
<symbol id="icon-cross" viewBox="0 0 32 32">
<path fill="none" stroke="#54adff" style="stroke: var(--color1, #54adff)" stroke-linejoin="round" stroke-linecap="round" stroke-miterlimit="4" stroke-width="2" d="M25.333 6.667l-18.667 18.667M6.667 6.667l18.667 18.667"></path>
</symbol>
<symbol id="icon-cross-small" viewBox="0 0 32 32">
<path fill="none" stroke="#ffc107" style="stroke: var(--color2, #ffc107)" stroke-linejoin="round" stroke-linecap="round" stroke-miterlimit="4" stroke-width="2" d="M21.333 10.667l-10.667 10.667M10.667 10.667l10.667 10.667"></path>
</symbol>
<symbol id="icon-Logo_Mob" viewBox="0 0 186 32">
<path fill="#303030" style="fill: var(--color3, #303030)" d="M4.050 29.357c-2.095-0.286-3.369-1.393-3.821-3.321l0.036-0.393c0.095-0.286 0.202-0.607 0.321-0.964 0.119-0.405 0.25-0.798 0.393-1.179 0.143-0.405 0.381-0.762 0.714-1.072 0.071-0.214 0.202-0.536 0.393-0.964 0.214-0.452 0.56-1.119 1.036-2 0.381-0.69 0.679-1.238 0.893-1.643 0.238-0.405 0.429-0.714 0.571-0.929-0.238-0.429-0.571-0.845-1-1.25-0.381-0.714-0.714-1.393-1-2.036-0.262-0.667-0.464-1.262-0.607-1.786-0.024-0.571-0.119-1.155-0.286-1.75-0.071-0.31-0.143-0.619-0.214-0.929s-0.107-0.631-0.107-0.964c-0.095-0.167-0.179-0.381-0.25-0.643l0.071-0.429c0.119-0.19 0.143-0.44 0.071-0.75-0.048-0.333-0.119-0.667-0.214-1-0.071-0.31-0.143-0.631-0.214-0.964-0.048-0.357-0.060-0.702-0.036-1.036s0.107-0.655 0.25-0.964c0.167-0.31 0.44-0.571 0.821-0.786l0.357-0.25 0.357 0.214c0.262 0.167 0.512 0.309 0.75 0.429s0.476 0.238 0.714 0.357c0.286 0.143 0.571 0.298 0.857 0.464 0.286 0.143 0.595 0.31 0.929 0.5l0.357 0.25-0.036 0.393c0 0.048 0.012 0.107 0.036 0.179s0.060 0.131 0.107 0.179l0.393 0.107 0.036 0.5v0.429c0 0.214 0.012 0.369 0.036 0.464 0.024 0.071 0.071 0.155 0.143 0.25l0.179 0.464c0 0.429 0.036 0.81 0.107 1.143s0.155 0.667 0.25 1c0.119 0.333 0.214 0.679 0.286 1.036 0.071 0.333 0.083 0.702 0.036 1.107 0.143-0.071 0.286-0.179 0.429-0.321 0.048-0.048 0.095-0.095 0.143-0.143 0.071-0.048 0.143-0.095 0.214-0.143l2.5-3.393-0.071-0.429 0.893-0.857c0.238-0.19 0.464-0.381 0.679-0.571 0.214-0.214 0.393-0.452 0.536-0.714l0.214-0.321c1.071-1.429 2.452-2.31 4.143-2.643l0.607-0.143 0.179 0.571c0.119 0.333 0.345 0.631 0.679 0.893 0.357 0.238 0.738 0.476 1.143 0.714l0.393 0.25c0.143 0.286 0.214 0.5 0.214 0.643s-0.012 0.262-0.036 0.357l0.179 0.464c-0.262 0.69-0.548 1.19-0.857 1.5-0.309 0.286-0.631 0.56-0.964 0.821-0.262 0.214-0.5 0.429-0.714 0.643s-0.381 0.452-0.5 0.714l-0.286 0.357c-0.595 0.31-0.976 0.762-1.143 1.357l-0.143 0.5h-0.536c-0.024 0-0.083 0.060-0.179 0.179-0.095 0.095-0.238 0.345-0.429 0.75-0.214 0.286-0.369 0.476-0.464 0.571-0.071 0.071-0.131 0.131-0.179 0.179-0.048 0.119-0.095 0.226-0.143 0.321-0.024 0.095-0.060 0.214-0.107 0.357l-0.214 0.286c-0.214 0.19-0.369 0.381-0.464 0.571-0.095 0.167-0.202 0.369-0.321 0.607-0.095 0.214-0.202 0.44-0.321 0.679-0.119 0.214-0.286 0.429-0.5 0.643l0.071 0.393-0.286 0.25c-0.19 0.167-0.357 0.381-0.5 0.643-0.143 0.238-0.286 0.488-0.429 0.75-0.143 0.286-0.298 0.572-0.464 0.857s-0.381 0.548-0.643 0.786c-0.167 0.429-0.321 0.762-0.464 1-0.119 0.238-0.333 0.524-0.643 0.857-0.286 1.143-0.964 2.369-2.036 3.679-0.024 0.262-0.107 0.524-0.25 0.786-0.119 0.238-0.25 0.464-0.393 0.679-0.048 0.095-0.107 0.202-0.179 0.321-0.048 0.095-0.083 0.167-0.107 0.214l-0.107 0.393c-0.143 0.262-0.298 0.476-0.464 0.643-0.143 0.167-0.286 0.321-0.429 0.464-0.071 0.048-0.143 0.107-0.214 0.179-0.048 0.072-0.095 0.131-0.143 0.179l-0.607 0.214z"></path>
<path fill="#303030" style="fill: var(--color3, #303030)" d="M76.294 7.857c0.048 0.524 0.131 0.976 0.25 1.357s0.25 0.75 0.393 1.107c0.119 0.333 0.226 0.667 0.321 1 0.119 0.31 0.202 0.69 0.25 1.143-0.191 0.619-0.333 1.19-0.429 1.714-0.071 0.524-0.155 1.071-0.25 1.643-0.381 0.833-0.75 1.571-1.107 2.214s-0.643 1.202-0.857 1.679c-0.119 0.119-0.226 0.262-0.321 0.429-0.071 0.143-0.155 0.298-0.25 0.464-0.048 0.072-0.107 0.179-0.179 0.321s-0.131 0.238-0.179 0.286l-0.714-0.25-0.143 0.893-0.5 0.143-0.357 0.428c-0.452 0.786-0.929 1.452-1.429 2-0.5 0.524-1.071 1-1.714 1.429-0.619 0.405-1.333 0.786-2.143 1.143-0.786 0.357-1.679 0.75-2.679 1.179-0.405-0.048-0.762-0.072-1.071-0.072-0.286-0.024-0.56-0.048-0.821-0.071-0.452 0-1.012-0.036-1.679-0.107-0.072-0.19-0.179-0.321-0.321-0.393s-0.274-0.107-0.393-0.107c-0.405-0.19-0.714-0.464-0.929-0.821-0.19-0.381-0.381-0.786-0.571-1.214-0.119-0.262-0.238-0.5-0.357-0.714-0.119-0.238-0.25-0.476-0.393-0.714l0.607-0.179-0.786-0.857c-0.048-0.071-0.107-0.131-0.179-0.179-0.071-0.071-0.131-0.143-0.179-0.214l-0.036-0.572c-0.072-1.643-0.107-3.143-0.107-4.5 0.024-1.381 0.214-2.607 0.571-3.678v-0.393c0.072-0.524 0.143-0.952 0.214-1.286 0.071-0.357 0.131-0.69 0.179-1 0.071-0.524 0.179-1.012 0.321-1.464 0.333-0.071 0.583-0.202 0.75-0.393 0.167-0.214 0.31-0.405 0.429-0.571 0.333-0.024 0.56 0.024 0.679 0.143s0.238 0.31 0.357 0.571c0.119 0.214 0.262 0.452 0.429 0.714 0.19 0.262 0.464 0.464 0.821 0.607 0.048 0.19 0.107 0.393 0.179 0.607 0.095 0.19 0.19 0.405 0.286 0.643 0.191 0.405 0.357 0.833 0.5 1.286 0.167 0.429 0.262 0.845 0.286 1.25-0.238 0.452-0.429 0.976-0.571 1.571-0.119 0.595-0.202 1.202-0.25 1.821-0.024 0.595-0.012 1.179 0.036 1.75 0.072 0.548 0.179 1.012 0.321 1.393l0.214 0.464 0.607-0.072c0.714-0.19 1.357-0.393 1.929-0.607 0.595-0.238 1.143-0.512 1.643-0.821s0.976-0.667 1.428-1.072c0.452-0.428 0.929-0.917 1.429-1.464s0.928-1.167 1.286-1.857c0.381-0.714 0.691-1.452 0.929-2.214 0.262-0.762 0.452-1.512 0.571-2.25 0.143-0.762 0.238-1.476 0.286-2.143 0.405-0.143 0.607-0.429 0.607-0.857l-0.072-0.393c-0.095-0.143-0.095-0.31 0-0.5 0.143-0.452 0.476-0.798 1-1.036 0.381 0.238 0.714 0.5 1 0.786 0.31 0.286 0.595 0.571 0.857 0.857z"></path>
<path fill="#303030" style="fill: var(--color3, #303030)" d="M83.828 24.464c-0.262 0.952-0.5 1.679-0.714 2.179-0.191 0.476-0.488 0.976-0.893 1.5-0.309-0.048-0.524-0.012-0.643 0.107s-0.25 0.226-0.393 0.321c-0.214 0.048-0.369 0.048-0.464 0s-0.179-0.107-0.25-0.179c-0.072-0.048-0.167-0.107-0.286-0.179-0.095-0.048-0.25-0.071-0.464-0.071-0.048-0.191-0.107-0.369-0.179-0.536-0.048-0.167-0.202-0.226-0.464-0.179 0.048-0.19 0.060-0.345 0.036-0.464-0.024-0.143-0.060-0.262-0.107-0.357-0.024-0.119-0.048-0.226-0.072-0.321-0.024-0.119-0.012-0.262 0.036-0.428-0.119 0-0.214-0.083-0.286-0.25s-0.155-0.333-0.25-0.5c0.072-0.428 0.143-0.833 0.214-1.214s0.155-0.738 0.25-1.071c0.119-0.333 0.214-0.667 0.286-1s0.036-0.679-0.107-1.036c0.095 0.072 0.167 0.060 0.214-0.036 0.048-0.119 0.083-0.262 0.107-0.428 0.024-0.191 0.036-0.369 0.036-0.536 0-0.19-0.012-0.345-0.036-0.464 0.238-0.619 0.429-1.25 0.572-1.893 0.167-0.667 0.309-1.321 0.428-1.964 0.143-0.643 0.286-1.274 0.429-1.893s0.333-1.19 0.571-1.714c0.262-0.048 0.548-0.012 0.857 0.107 0.333 0.095 0.536 0.226 0.607 0.393 0.619-0.476 1.167-1.048 1.643-1.714 0.476-0.69 0.964-1.357 1.464-2s1.048-1.214 1.643-1.714c0.619-0.5 1.393-0.798 2.321-0.893 0.476 0.357 1 0.726 1.572 1.107 0.595 0.357 1.083 0.833 1.464 1.429 0.19 0.095 0.345 0.202 0.464 0.321 0.143 0.095 0.31 0.202 0.5 0.321v0.429c0.286 0.262 0.512 0.571 0.679 0.929 0.19 0.333 0.357 0.702 0.5 1.107 0.143 0.381 0.286 0.774 0.428 1.179 0.143 0.381 0.31 0.75 0.5 1.107-0.048 0.119-0.071 0.226-0.071 0.321 0 0.071 0.012 0.155 0.036 0.25 0.048 0.095 0.083 0.19 0.107 0.286s0.024 0.226 0 0.393c-0.072 1.048-0.417 1.893-1.036 2.536-0.595 0.643-1.321 1.179-2.179 1.607-0.857 0.405-1.774 0.75-2.75 1.036s-1.857 0.595-2.643 0.929c0 0.095 0.036 0.143 0.107 0.143 0.095 0 0.131 0.060 0.107 0.179 0.572 0.357 1.024 0.643 1.357 0.857s0.643 0.393 0.929 0.536c0.309 0.143 0.631 0.274 0.964 0.393 0.357 0.095 0.845 0.214 1.464 0.357s1.095 0.262 1.429 0.357c0.357 0.071 0.679 0.143 0.964 0.214 0.286 0.048 0.571 0.095 0.857 0.143 0.309 0.024 0.738 0.060 1.286 0.107 0.214 0.214 0.393 0.476 0.536 0.786 0.167 0.286 0.274 0.583 0.321 0.893 0.048 0.286 0.060 0.572 0.036 0.857-0.024 0.262-0.107 0.476-0.25 0.643 0.024 0.072 0.071 0.107 0.143 0.107 0.095-0.024 0.191-0.024 0.286 0-0.143 0.095-0.262 0.214-0.357 0.357s-0.191 0.286-0.286 0.429c-0.095 0.143-0.202 0.262-0.321 0.357-0.119 0.119-0.286 0.19-0.5 0.214-0.738 0.286-1.667 0.298-2.786 0.036-1.119-0.238-2.536-0.69-4.25-1.357-0.857-0.333-1.56-0.619-2.107-0.857-0.524-0.262-0.988-0.512-1.393-0.75-0.381-0.262-0.738-0.536-1.071-0.821-0.31-0.286-0.691-0.631-1.143-1.036zM88.935 12.214c-0.262 0.381-0.56 0.726-0.893 1.036-0.309 0.31-0.619 0.631-0.928 0.964-0.286 0.31-0.548 0.667-0.786 1.071-0.238 0.381-0.405 0.833-0.5 1.357 0.833-0.095 1.702-0.321 2.607-0.679 0.905-0.381 1.762-0.738 2.572-1.071-0.095-0.738-0.357-1.333-0.786-1.786-0.405-0.452-0.833-0.75-1.286-0.893z"></path>
<path fill="#303030" style="fill: var(--color3, #303030)" d="M115.103 18.856c0.026-0.103 0.077-0.141 0.154-0.116 0.103 0 0.192-0.013 0.27-0.038-0.205-0.205-0.334-0.475-0.385-0.809-0.051-0.359-0.18-0.655-0.385-0.886 0.051-0.128 0.090-0.257 0.116-0.385 0.051-0.128 0.167-0.18 0.346-0.154-0.077-0.565-0.064-1.091 0.039-1.579s0.257-0.95 0.462-1.386c0.231-0.436 0.488-0.86 0.77-1.271 0.308-0.436 0.603-0.873 0.886-1.309 0.231-0.051 0.372-0.026 0.424 0.077 0.051 0.077 0.141 0.051 0.27-0.077 0.411-0.282 0.693-0.59 0.847-0.924 0.154-0.359 0.231-0.744 0.231-1.155 0.231-0.667 0.488-1.322 0.77-1.964 0.308-0.667 0.655-1.284 1.040-1.848s0.796-1.052 1.232-1.463c0.436-0.436 0.911-0.77 1.425-1.001 0.359-0.308 0.808-0.59 1.348-0.847 0.565-0.257 1.155-0.449 1.771-0.578 0.642-0.154 1.296-0.231 1.964-0.231 0.667-0.026 1.284 0.038 1.848 0.193 0.128 0.051 0.205 0.026 0.231-0.077 0.026-0.128 0.090-0.193 0.192-0.193 1.284 0.154 2.426 0.411 3.427 0.77 1.027 0.359 1.9 0.86 2.618 1.502 0.488 0.77 0.95 1.604 1.386 2.503 0.436 0.873 0.77 1.797 1.001 2.772 0.257 0.95 0.372 1.938 0.347 2.965s-0.244 2.054-0.655 3.080c-0.898 1.129-1.989 2.041-3.273 2.734-1.284 0.668-2.67 1.232-4.159 1.694-1.463 0.436-2.991 0.796-4.582 1.078-1.566 0.282-3.093 0.59-4.582 0.924 0.026 0.693 0.026 1.437 0 2.233-0.026 0.77-0.116 1.553-0.27 2.349-0.128 0.77-0.334 1.527-0.616 2.272-0.257 0.744-0.616 1.438-1.078 2.079-0.513-0.026-1.052 0.026-1.617 0.154-0.539 0.128-1.027 0.257-1.463 0.385-0.205-0.128-0.411-0.257-0.616-0.385-0.18-0.103-0.411-0.167-0.693-0.192 0.077-0.308 0-0.629-0.231-0.963-0.205-0.334-0.424-0.655-0.655-0.963-0.205-0.334-0.347-0.655-0.424-0.963-0.051-0.334 0.103-0.629 0.462-0.886-0.205-0.18-0.308-0.462-0.308-0.847 0.103 0.103 0.231 0.154 0.385 0.154-0.051-0.462 0-1.014 0.154-1.656 0.18-0.642 0.321-1.271 0.424-1.887 0.128-0.642 0.154-1.219 0.077-1.733-0.077-0.539-0.385-0.924-0.924-1.155zM125.114 9.846c-0.103 0.282-0.192 0.539-0.269 0.77-0.051 0.205-0.116 0.398-0.193 0.578s-0.167 0.359-0.269 0.539c-0.077 0.18-0.167 0.385-0.27 0.616 0.051 0.154 0.154 0.27 0.308 0.347s0.257 0.193 0.308 0.347c0.359-0.18 0.719-0.308 1.078-0.385 0.359-0.103 0.719-0.18 1.078-0.231s0.719-0.116 1.078-0.193c0.36-0.077 0.732-0.205 1.117-0.385s0.783-0.321 1.194-0.424c0.436-0.128 0.86-0.257 1.271-0.385s0.809-0.27 1.194-0.424c0.385-0.18 0.719-0.411 1.001-0.693-0.359-0.334-0.898-0.629-1.617-0.886s-1.502-0.411-2.349-0.462c-0.821-0.077-1.656-0.026-2.503 0.154-0.821 0.18-1.54 0.552-2.156 1.117z"></path>
<path fill="#303030" style="fill: var(--color3, #303030)" d="M160.077 8.036c0.026 0.18 0.026 0.321 0 0.424 0 0.077-0.014 0.154-0.040 0.231 0 0.077 0 0.167 0 0.27 0 0.077 0.026 0.205 0.078 0.385-0.54 0.873-1.169 1.476-1.887 1.81-0.693 0.308-1.45 0.539-2.272 0.693-0.821 0.128-1.668 0.27-2.541 0.424-0.847 0.154-1.694 0.488-2.541 1.001-0.334-0.128-0.642-0.128-0.924 0-0.257 0.128-0.642 0.167-1.155 0.116-0.154 0.154-0.347 0.27-0.578 0.347-0.231 0.051-0.462 0.116-0.693 0.193 0.103 0.231 0.141 0.475 0.116 0.732 0 0.231 0.039 0.424 0.116 0.578 0.898 0.077 1.887 0.064 2.965-0.039 1.104-0.103 2.182-0.167 3.234-0.193 0.026 0.128 0.013 0.218-0.038 0.27-0.051 0.026-0.064 0.090-0.039 0.193 0.18 0.128 0.359 0.295 0.539 0.501 0.18 0.18 0.359 0.359 0.539 0.539s0.359 0.334 0.539 0.462c0.205 0.103 0.436 0.141 0.693 0.116 0.103 0.205 0.167 0.436 0.192 0.693 0.051 0.231 0.026 0.475-0.077 0.732-0.411 0.282-0.821 0.578-1.232 0.886-0.411 0.282-0.847 0.539-1.309 0.77-0.436 0.231-0.911 0.424-1.425 0.578-0.488 0.128-1.040 0.18-1.656 0.154-0.128 0-0.231 0-0.308 0-0.051 0-0.128-0.039-0.231-0.116-0.205 0.128-0.501 0.167-0.886 0.116-0.36-0.051-0.642-0.013-0.847 0.116-0.282-0.128-0.629-0.18-1.040-0.154-0.385 0-0.732-0.051-1.040-0.154-0.411 0.539-0.783 1.116-1.117 1.733s-0.629 1.271-0.886 1.964c0.873 0.128 1.592 0.18 2.156 0.154 0.59-0.026 1.142-0.064 1.656-0.116 0.513-0.077 1.040-0.141 1.579-0.192 0.539-0.077 1.219-0.103 2.041-0.077 0.513-0.282 1.117-0.462 1.81-0.539 0.719-0.103 1.373-0.257 1.964-0.462 0.205 0.077 0.385 0.218 0.539 0.424 0.154 0.18 0.295 0.36 0.424 0.539 0.154 0.154 0.308 0.295 0.462 0.424s0.347 0.18 0.578 0.154c0.103 0.103 0.167 0.231 0.192 0.385 0.051 0.128 0.090 0.257 0.116 0.385s0.064 0.244 0.116 0.347c0.077 0.077 0.192 0.103 0.347 0.077-0.385 0.847-0.834 1.502-1.348 1.964-0.488 0.436-1.052 0.77-1.694 1.001s-1.36 0.411-2.156 0.539c-0.77 0.128-1.63 0.282-2.58 0.462-0.231 0.051-0.424 0.039-0.578-0.039-0.154-0.051-0.334-0.077-0.539-0.077-0.59 0.128-1.296 0.244-2.118 0.347s-1.656 0.141-2.503 0.116c-0.847-0.026-1.656-0.141-2.426-0.347-0.77-0.18-1.399-0.513-1.887-1.001-0.205-0.18-0.347-0.385-0.424-0.616-0.051-0.257-0.218-0.449-0.501-0.577-0.026-0.334-0.077-0.706-0.154-1.117s-0.154-0.834-0.231-1.271c-0.077-0.462-0.141-0.911-0.192-1.348-0.026-0.436 0-0.834 0.077-1.194 0.077-0.385 0.231-0.732 0.462-1.040 0.257-0.308 0.347-0.642 0.27-1.001 0.128-0.026 0.205-0.090 0.231-0.193 0.026-0.128 0.128-0.18 0.308-0.154 0.154-0.462 0.321-0.899 0.501-1.309s0.359-0.808 0.539-1.194c0.205-0.385 0.398-0.77 0.577-1.155 0.205-0.411 0.398-0.86 0.578-1.348-0.359-0.334-0.629-0.693-0.808-1.078-0.154-0.411-0.27-0.809-0.347-1.194-0.077-0.411-0.141-0.821-0.193-1.232-0.051-0.436-0.141-0.873-0.269-1.309 0.257-0.385 0.565-0.693 0.924-0.924 0.385-0.257 0.796-0.462 1.232-0.616s0.911-0.282 1.425-0.385c0.513-0.103 1.052-0.218 1.617-0.347 1.027-0.334 1.938-0.59 2.734-0.77 0.821-0.18 1.617-0.321 2.387-0.424 0.796-0.128 1.617-0.244 2.464-0.347s1.81-0.257 2.888-0.462c0.231 0.231 0.449 0.347 0.655 0.347 0.103-0.231 0.218-0.295 0.347-0.192 0.154 0.077 0.218 0 0.192-0.231 0.257 0.436 0.578 0.809 0.963 1.117 0.411 0.282 0.86 0.526 1.348 0.732z"></path>
<path fill="#303030" style="fill: var(--color3, #303030)" d="M181.061 11.194c-0.642 0-1.334 0.051-2.078 0.154-0.746 0.077-1.477 0.167-2.195 0.27-0.514 0.077-1.014 0.141-1.502 0.193-0.461 0.051-0.885 0.090-1.27 0.116-0.179 0.565-0.358 1.065-0.539 1.502-0.179 0.436-0.371 0.86-0.578 1.271-0.205 0.436-0.397 0.886-0.578 1.348-0.154 0.436-0.307 0.911-0.462 1.425-0.256 0.411-0.474 0.796-0.654 1.155-0.154 0.334-0.282 0.719-0.384 1.155-0.309 0.385-0.539 0.796-0.693 1.232-0.155 0.411-0.27 0.77-0.347 1.078l-0.154 0.462c-0.155 0.154-0.245 0.282-0.27 0.385-0.026 0.077-0.090 0.154-0.192 0.231-0.026 0.282-0.115 0.565-0.27 0.847-0.051 0.128-0.090 0.257-0.115 0.385-0.026 0.103-0.038 0.18-0.038 0.231 0 0.257-0.064 0.424-0.192 0.501 0.026 0.128 0.026 0.269 0 0.424-0.026 0.128-0.051 0.257-0.077 0.385-0.077 0.308-0.102 0.552-0.077 0.732 0.077 0.103 0.141 0.192 0.192 0.269 0.077 0.077 0.128 0.18 0.154 0.308 0.154 0.103 0.27 0.167 0.347 0.193 0.102 0.077 0.256 0.167 0.462 0.269l0.346 0.385c0.128 0.744 0.013 1.335-0.346 1.771-0.386 0.488-1.040 0.732-1.965 0.732h-0.462c-0.128-0.128-0.205-0.231-0.23-0.308-0.205-0.077-0.373-0.141-0.501-0.192s-0.243-0.154-0.346-0.308c-0.334-0.154-0.603-0.282-0.81-0.385l-0.346-0.192c0-0.282 0-0.436 0-0.462-0.181-0.231-0.322-0.488-0.424-0.77-0.077-0.282-0.141-0.565-0.192-0.847-0.051-0.231-0.117-0.449-0.194-0.655-0.051-0.205-0.128-0.385-0.23-0.539-0.051-1.489 0.090-2.747 0.424-3.773 0.333-1.027 0.68-2.015 1.038-2.965 0.206-0.513 0.411-1.027 0.616-1.54 0.206-0.539 0.386-1.091 0.539-1.656l0.347-0.385c0.179-0.411 0.32-0.744 0.424-1.001 0.128-0.282 0.256-0.565 0.384-0.847 0.077-0.18 0.142-0.347 0.194-0.501 0.077-0.18 0.141-0.334 0.192-0.462-0.154 0-0.296 0.013-0.424 0.039-0.128 0-0.256 0.013-0.384 0.039-0.155 0.026-0.296 0.051-0.424 0.077-0.128 0-0.258 0-0.386 0-0.179 0-0.307-0.013-0.384-0.039-0.283 0.128-0.59 0.193-0.925 0.193h-0.386c-0.077 0-0.154 0-0.23 0-0.051-0.026-0.102-0.039-0.154-0.039-0.258 0-0.462 0.039-0.616 0.116-0.309 0-0.603 0-0.886 0h-0.386c-0.051 0-0.115 0.013-0.192 0.039-0.077 0-0.141 0-0.192 0-0.179 0-0.373-0.013-0.578-0.039-0.205-0.051-0.424-0.141-0.654-0.27-0.309-0.411-0.514-0.629-0.616-0.655l-0.347-0.462c-0.026-0.154-0.064-0.295-0.116-0.424-0.051-0.154-0.103-0.321-0.154-0.501-0.103-0.257-0.205-0.526-0.308-0.809-0.077-0.308-0.116-0.667-0.116-1.078 0.026-0.205 0.077-0.359 0.154-0.462s0.141-0.193 0.192-0.27l0.116-0.578 0.501 0.038h1.077c0.822 0 1.656-0.026 2.504-0.077 0.846-0.077 1.72-0.154 2.618-0.231 0.514-0.051 1.027-0.103 1.541-0.154 0.539-0.051 1.091-0.103 1.654-0.154 0.104-0.231 0.206-0.449 0.309-0.655l0.386-0.192c0.461-0.026 0.782 0.038 0.962 0.192 0.206 0.128 0.373 0.257 0.501 0.385 0.565-0.051 1.13-0.103 1.694-0.154 0.59-0.077 1.181-0.167 1.771-0.27 0.874-0.128 1.746-0.244 2.618-0.347 0.899-0.103 1.758-0.154 2.581-0.154 0.358 0 0.706 0.013 1.040 0.038 0.333 0.026 0.642 0.064 0.923 0.116l0.386 0.27c0.077 0.154 0.179 0.295 0.307 0.424 0.155 0.128 0.309 0.257 0.462 0.385 0.309 0.282 0.616 0.616 0.925 1.001 0.307 0.385 0.422 0.95 0.346 1.694-0.205 0.308-0.358 0.488-0.461 0.539l-0.347 0.462-0.386-0.039c-0.154 0-0.294 0.026-0.422 0.077-0.13 0.026-0.258 0.064-0.386 0.116-0.102 0.051-0.205 0.103-0.309 0.154-0.102 0.026-0.218 0.051-0.346 0.077-0.232 0-0.424 0-0.578 0-0.128-0.026-0.27-0.039-0.424-0.039z"></path>
<path fill="#ffc107" style="fill: var(--color2, #ffc107)" d="M35.028 12.551c2.181 1.017 4.899-0.177 6.057-2.662l0.059-0.127c1.124-2.408 1.787-3.829-0.357-4.829-0.516-0.229-1.091-0.415-1.689-0.546l-0.026-0.026-0.057 0.008c-2.305-0.48-4.93-0.123-5.841 1.83-1.159 2.485-0.327 5.334 1.854 6.351zM34.558 7.441c0.674-0.295 1.607-0.461 2.8-0.222 1.026 0.205 1.86 0.188 2.503 0.072 0.046 0.597-0.066 1.244-0.354 1.862-0.753 1.614-2.432 2.431-3.743 1.82-1.176-0.548-1.662-2.061-1.206-3.532z"></path>
<path fill="#ffc107" style="fill: var(--color2, #ffc107)" d="M29.581 11.661c-0.767 0.784-1.753 1.176-2.778 1.105-0.332-0.023-1.070-0.391-1.543-0.627-0.122-0.061-0.226-0.113-0.301-0.148-1.433-0.668-1.724-1.855-1.596-3.715 0.163-2.335 1.969-4.118 4.026-3.975 0.963 0.066 1.478 0.766 2.078 1.583l0.001 0.001c0.037 0.051 0.075 0.102 0.113 0.153 0.060 0.082 0.122 0.163 0.183 0.245 0.567 0.755 1.135 1.511 1.067 2.508-0.076 1.105-0.52 2.124-1.25 2.87zM27.269 6.039c-1.1-0.076-2.073 0.981-2.169 2.357-0.094 1.376 0.725 2.557 1.824 2.632 0.506 0.035 1.008-0.173 1.412-0.585 0.44-0.45 0.709-1.079 0.757-1.772s-0.133-1.352-0.507-1.859c-0.208-0.282-0.462-0.494-0.743-0.625-0.182-0.085-0.375-0.136-0.574-0.149z"></path>
<path fill="#ffc107" style="fill: var(--color2, #ffc107)" d="M36.833 14.264c-2.245-1.047-4.836-0.881-6.929 0.445l-5.044 3.194c-0.837 0.53-1.468 1.299-1.824 2.223s-0.404 1.917-0.14 2.872c0.265 0.955 0.819 1.781 1.601 2.389s1.72 0.941 2.71 0.963l0.065 0.001c2.485 0.073 4.846 1.184 6.487 3.054 0.423 0.482 0.932 0.864 1.501 1.129 0.309 0.144 0.637 0.254 0.978 0.328 0.969 0.208 1.957 0.102 2.86-0.309s1.632-1.086 2.111-1.953c0.479-0.867 0.663-1.844 0.531-2.827l-0.796-5.917c-0.33-2.456-1.868-4.547-4.113-5.594zM39.896 25.121c-2.739-1.088-6.784-1.893-7.115 1.173-0.399-0.254-0.814-0.482-1.242-0.682-1.333-0.622-2.795-0.971-4.292-1.004l-0.043-0.001c-1.242-0.045-2.297-0.875-2.631-2.076-0.31-1.118 0.079-2.282 0.974-2.986 0.647-0.457 1.713-0.654 3.809 0.245 3.2 1.371 3.238-0.572 2.286-1.714 1.143 0 3.542-0.343 4-1.714 0.087-0.262 0.107-0.487 0.075-0.678 0.127 0.048 0.253 0.101 0.377 0.159 1.705 0.795 2.872 2.383 3.123 4.247l0.677 5.031z"></path>
<path fill="#ffc107" style="fill: var(--color2, #ffc107)" d="M43.617 17.546c-0.341-0.159-0.659-0.372-0.942-0.64-1.606-1.518-1.509-4.239 0.217-6.065 0.818-0.866 1.882-1.409 2.997-1.53 0.769-0.083 0.94 0.196 1.196 0.611 0.132 0.215 0.287 0.468 0.56 0.725 0.229 0.216 0.532 0.428 0.846 0.648 0.781 0.545 1.631 1.14 1.588 1.975-0.058 1.12-0.54 2.213-1.359 3.079-1.421 1.504-3.511 1.938-5.102 1.197zM46.077 11.043c-0.704 0.077-1.385 0.43-1.919 0.995-1.066 1.128-1.31 3.297-0.402 4.156s2.363 0.556 3.429-0.571c0.534-0.565 1.117-1.735 1.154-2.442 0.034-0.654-0.179-1.233-0.599-1.631s-1.011-0.578-1.662-0.507z"></path>
<path fill="#ffc107" style="fill: var(--color2, #ffc107)" d="M49.695 20.537c-1.229-1.889-3.423-1.862-5.479-0.746-2.055 1.117-2.662 2.878-1.678 4.69 0.359 0.661 0.915 1.157 1.578 1.466 1.154 0.538 2.63 0.509 3.938-0.2 2.055-1.117 2.624-3.396 1.641-5.209zM47.223 24.215c-1.214 0.658-2.628 0.404-3.154-0.566-0.385-0.71-0.188-1.611 0.421-2.301 1.232-0.21 2.791-0.403 3.808-0.335 0.063 0.077 0.12 0.161 0.168 0.251 0.525 0.969-0.033 2.293-1.243 2.951z"></path>
</symbol>
<symbol id="icon-Logo_Desctop" viewBox="0 0 185 32">
<path fill="#303030" style="fill: var(--color3, #303030)" d="M3.821 29.357c-2.095-0.286-3.369-1.393-3.821-3.322l0.036-0.393c0.095-0.286 0.202-0.607 0.321-0.964 0.119-0.405 0.25-0.798 0.393-1.179 0.143-0.405 0.381-0.762 0.714-1.071 0.071-0.214 0.202-0.536 0.393-0.964 0.214-0.452 0.56-1.119 1.036-2 0.381-0.69 0.679-1.238 0.893-1.643 0.238-0.405 0.429-0.714 0.571-0.929-0.238-0.429-0.571-0.845-1-1.25-0.381-0.714-0.714-1.393-1-2.036-0.262-0.667-0.464-1.262-0.607-1.786-0.024-0.572-0.119-1.155-0.286-1.75-0.071-0.31-0.143-0.619-0.214-0.929s-0.107-0.631-0.107-0.964c-0.095-0.167-0.179-0.381-0.25-0.643l0.071-0.429c0.119-0.19 0.143-0.44 0.071-0.75-0.048-0.333-0.119-0.667-0.214-1-0.071-0.31-0.143-0.631-0.214-0.964-0.048-0.357-0.060-0.702-0.036-1.036s0.107-0.655 0.25-0.964c0.167-0.31 0.44-0.571 0.821-0.786l0.357-0.25 0.357 0.214c0.262 0.167 0.512 0.31 0.75 0.429s0.476 0.238 0.714 0.357c0.286 0.143 0.571 0.298 0.857 0.464 0.286 0.143 0.595 0.31 0.929 0.5l0.357 0.25-0.036 0.393c0 0.048 0.012 0.107 0.036 0.179s0.060 0.131 0.107 0.179l0.393 0.107 0.036 0.5v0.429c0 0.214 0.012 0.369 0.036 0.464 0.024 0.071 0.071 0.155 0.143 0.25l0.179 0.464c0 0.429 0.036 0.81 0.107 1.143s0.155 0.667 0.25 1c0.119 0.333 0.214 0.679 0.286 1.036 0.071 0.333 0.083 0.702 0.036 1.107 0.143-0.071 0.286-0.179 0.429-0.321 0.048-0.048 0.095-0.095 0.143-0.143 0.071-0.048 0.143-0.095 0.214-0.143l2.5-3.393-0.071-0.429 0.893-0.857c0.238-0.19 0.464-0.381 0.678-0.571 0.214-0.214 0.393-0.452 0.536-0.714l0.214-0.321c1.071-1.429 2.452-2.31 4.143-2.643l0.607-0.143 0.178 0.571c0.119 0.333 0.345 0.631 0.679 0.893 0.357 0.238 0.738 0.476 1.143 0.714l0.393 0.25c0.143 0.286 0.214 0.5 0.214 0.643s-0.012 0.262-0.036 0.357l0.178 0.464c-0.262 0.69-0.548 1.19-0.857 1.5-0.309 0.286-0.631 0.56-0.964 0.821-0.262 0.214-0.5 0.429-0.714 0.643s-0.381 0.452-0.5 0.714l-0.286 0.357c-0.595 0.31-0.976 0.762-1.143 1.357l-0.143 0.5h-0.536c-0.024 0-0.083 0.060-0.178 0.179-0.095 0.095-0.238 0.345-0.429 0.75-0.214 0.286-0.369 0.476-0.464 0.571-0.071 0.071-0.131 0.131-0.179 0.178-0.048 0.119-0.095 0.226-0.143 0.322-0.024 0.095-0.059 0.214-0.107 0.357l-0.214 0.286c-0.214 0.191-0.369 0.381-0.464 0.571-0.095 0.167-0.202 0.369-0.322 0.607-0.095 0.214-0.202 0.441-0.322 0.679-0.119 0.214-0.286 0.429-0.5 0.643l0.071 0.393-0.286 0.25c-0.19 0.167-0.357 0.381-0.5 0.643-0.143 0.238-0.286 0.488-0.429 0.75-0.143 0.286-0.298 0.571-0.464 0.857s-0.381 0.548-0.643 0.786c-0.167 0.429-0.321 0.762-0.464 1-0.119 0.238-0.333 0.524-0.643 0.857-0.286 1.143-0.964 2.369-2.036 3.679-0.024 0.262-0.107 0.524-0.25 0.786-0.119 0.238-0.25 0.464-0.393 0.678-0.048 0.095-0.107 0.202-0.179 0.322-0.048 0.095-0.083 0.167-0.107 0.214l-0.107 0.393c-0.143 0.262-0.298 0.476-0.464 0.643-0.143 0.167-0.286 0.322-0.429 0.464-0.071 0.048-0.143 0.107-0.214 0.179-0.048 0.071-0.095 0.131-0.143 0.178l-0.607 0.214z"></path>
<path fill="#303030" style="fill: var(--color3, #303030)" d="M76.066 7.857c0.048 0.524 0.131 0.976 0.25 1.357s0.25 0.75 0.393 1.107c0.119 0.333 0.226 0.667 0.321 1 0.119 0.31 0.202 0.69 0.25 1.143-0.191 0.619-0.333 1.191-0.429 1.714-0.071 0.524-0.155 1.072-0.25 1.643-0.381 0.833-0.75 1.571-1.107 2.214s-0.643 1.202-0.857 1.679c-0.119 0.119-0.226 0.262-0.322 0.429-0.071 0.143-0.155 0.298-0.25 0.464-0.048 0.072-0.107 0.179-0.179 0.322s-0.131 0.238-0.178 0.286l-0.714-0.25-0.143 0.893-0.5 0.143-0.357 0.429c-0.452 0.786-0.929 1.452-1.429 2-0.5 0.524-1.071 1-1.714 1.429-0.619 0.405-1.333 0.786-2.143 1.143-0.786 0.357-1.679 0.75-2.679 1.178-0.405-0.048-0.762-0.071-1.071-0.071-0.286-0.024-0.559-0.048-0.821-0.072-0.452 0-1.012-0.036-1.679-0.107-0.071-0.191-0.178-0.322-0.321-0.393s-0.274-0.107-0.393-0.107c-0.405-0.191-0.714-0.464-0.929-0.822-0.19-0.381-0.381-0.786-0.571-1.214-0.119-0.262-0.238-0.5-0.357-0.714-0.119-0.238-0.25-0.476-0.393-0.714l0.607-0.179-0.786-0.857c-0.048-0.071-0.107-0.131-0.178-0.179-0.071-0.071-0.131-0.143-0.179-0.214l-0.036-0.571c-0.071-1.643-0.107-3.143-0.107-4.5 0.024-1.381 0.214-2.607 0.571-3.678v-0.393c0.071-0.524 0.143-0.952 0.214-1.286 0.071-0.357 0.131-0.691 0.179-1 0.071-0.524 0.178-1.012 0.321-1.464 0.333-0.071 0.583-0.202 0.75-0.393 0.167-0.214 0.309-0.405 0.429-0.571 0.333-0.024 0.56 0.024 0.678 0.143s0.238 0.31 0.357 0.571c0.119 0.214 0.262 0.452 0.429 0.714 0.191 0.262 0.464 0.464 0.822 0.607 0.048 0.19 0.107 0.393 0.178 0.607 0.095 0.19 0.191 0.405 0.286 0.643 0.191 0.405 0.357 0.833 0.5 1.286 0.167 0.429 0.262 0.845 0.286 1.25-0.238 0.452-0.429 0.976-0.571 1.571-0.119 0.595-0.202 1.202-0.25 1.821-0.024 0.595-0.012 1.179 0.036 1.75 0.071 0.548 0.179 1.012 0.322 1.393l0.214 0.464 0.607-0.071c0.714-0.191 1.357-0.393 1.929-0.607 0.595-0.238 1.143-0.512 1.643-0.822s0.976-0.667 1.429-1.071c0.452-0.429 0.929-0.917 1.429-1.464s0.929-1.167 1.286-1.857c0.381-0.714 0.691-1.452 0.929-2.214 0.262-0.762 0.452-1.512 0.571-2.25 0.143-0.762 0.238-1.476 0.286-2.143 0.405-0.143 0.607-0.429 0.607-0.857l-0.071-0.393c-0.095-0.143-0.095-0.31 0-0.5 0.143-0.452 0.476-0.798 1-1.036 0.381 0.238 0.714 0.5 1 0.786 0.309 0.286 0.595 0.571 0.857 0.857z"></path>
<path fill="#303030" style="fill: var(--color3, #303030)" d="M83.6 24.464c-0.262 0.952-0.5 1.679-0.714 2.179-0.191 0.476-0.488 0.976-0.893 1.5-0.31-0.048-0.524-0.012-0.643 0.107s-0.25 0.226-0.393 0.321c-0.214 0.048-0.369 0.048-0.464 0s-0.179-0.107-0.25-0.178c-0.071-0.048-0.167-0.107-0.286-0.179-0.095-0.048-0.25-0.071-0.464-0.071-0.048-0.191-0.107-0.369-0.179-0.536-0.048-0.167-0.202-0.226-0.464-0.178 0.048-0.191 0.059-0.345 0.036-0.464-0.024-0.143-0.060-0.262-0.107-0.357-0.024-0.119-0.048-0.226-0.071-0.321-0.024-0.119-0.012-0.262 0.036-0.429-0.119 0-0.214-0.083-0.286-0.25s-0.155-0.333-0.25-0.5c0.071-0.429 0.143-0.833 0.214-1.214s0.155-0.738 0.25-1.071c0.119-0.333 0.214-0.667 0.286-1s0.036-0.679-0.107-1.036c0.095 0.071 0.167 0.060 0.214-0.036 0.048-0.119 0.083-0.262 0.107-0.429 0.024-0.19 0.036-0.369 0.036-0.536 0-0.191-0.012-0.345-0.036-0.464 0.238-0.619 0.429-1.25 0.571-1.893 0.167-0.667 0.309-1.321 0.429-1.964 0.143-0.643 0.286-1.274 0.429-1.893s0.333-1.191 0.571-1.714c0.262-0.048 0.548-0.012 0.857 0.107 0.333 0.095 0.536 0.226 0.607 0.393 0.619-0.476 1.167-1.048 1.643-1.714 0.476-0.69 0.964-1.357 1.464-2s1.048-1.214 1.643-1.714c0.619-0.5 1.393-0.798 2.322-0.893 0.476 0.357 1 0.726 1.571 1.107 0.595 0.357 1.083 0.833 1.464 1.429 0.191 0.095 0.345 0.202 0.464 0.321 0.143 0.095 0.309 0.202 0.5 0.321v0.429c0.286 0.262 0.512 0.571 0.678 0.929 0.191 0.333 0.357 0.702 0.5 1.107 0.143 0.381 0.286 0.774 0.429 1.178 0.143 0.381 0.309 0.75 0.5 1.107-0.048 0.119-0.071 0.226-0.071 0.321 0 0.071 0.012 0.155 0.036 0.25 0.048 0.095 0.083 0.19 0.107 0.286s0.024 0.226 0 0.393c-0.071 1.048-0.417 1.893-1.036 2.536-0.595 0.643-1.322 1.179-2.179 1.607-0.857 0.405-1.774 0.75-2.75 1.036s-1.857 0.595-2.643 0.928c0 0.095 0.036 0.143 0.107 0.143 0.095 0 0.131 0.060 0.107 0.179 0.571 0.357 1.024 0.643 1.357 0.857s0.643 0.393 0.929 0.536c0.309 0.143 0.631 0.274 0.964 0.393 0.357 0.095 0.845 0.214 1.464 0.357s1.095 0.262 1.429 0.357c0.357 0.071 0.678 0.143 0.964 0.214 0.286 0.048 0.571 0.095 0.857 0.143 0.309 0.024 0.738 0.060 1.286 0.107 0.214 0.214 0.393 0.476 0.536 0.786 0.167 0.286 0.274 0.583 0.321 0.893 0.048 0.286 0.060 0.571 0.036 0.857-0.024 0.262-0.107 0.476-0.25 0.643 0.024 0.071 0.071 0.107 0.143 0.107 0.095-0.024 0.191-0.024 0.286 0-0.143 0.095-0.262 0.214-0.357 0.357s-0.191 0.286-0.286 0.429c-0.095 0.143-0.202 0.262-0.321 0.357-0.119 0.119-0.286 0.191-0.5 0.214-0.738 0.286-1.667 0.298-2.786 0.036-1.119-0.238-2.536-0.691-4.25-1.357-0.857-0.333-1.56-0.619-2.107-0.857-0.524-0.262-0.988-0.512-1.393-0.75-0.381-0.262-0.738-0.536-1.071-0.821-0.309-0.286-0.691-0.631-1.143-1.036zM88.707 12.214c-0.262 0.381-0.56 0.726-0.893 1.036-0.309 0.309-0.619 0.631-0.929 0.964-0.286 0.309-0.548 0.667-0.786 1.071-0.238 0.381-0.405 0.833-0.5 1.357 0.833-0.095 1.702-0.322 2.607-0.678 0.905-0.381 1.762-0.738 2.571-1.072-0.095-0.738-0.357-1.333-0.786-1.786-0.405-0.452-0.833-0.75-1.286-0.893z"></path>
<path fill="#303030" style="fill: var(--color3, #303030)" d="M114.875 18.856c0.026-0.103 0.077-0.141 0.154-0.116 0.103 0 0.192-0.013 0.27-0.038-0.206-0.205-0.334-0.475-0.385-0.809-0.051-0.359-0.179-0.654-0.385-0.886 0.051-0.128 0.090-0.257 0.115-0.385 0.051-0.128 0.167-0.18 0.346-0.154-0.077-0.565-0.064-1.091 0.039-1.579s0.256-0.95 0.462-1.386c0.231-0.436 0.488-0.86 0.77-1.271 0.309-0.436 0.603-0.873 0.886-1.309 0.231-0.051 0.373-0.026 0.424 0.077 0.050 0.077 0.141 0.051 0.269-0.077 0.411-0.282 0.694-0.59 0.848-0.924 0.153-0.359 0.231-0.744 0.231-1.155 0.231-0.667 0.487-1.322 0.77-1.964 0.307-0.667 0.654-1.284 1.039-1.848s0.795-1.052 1.232-1.463c0.437-0.436 0.912-0.77 1.425-1.001 0.359-0.308 0.808-0.59 1.347-0.847 0.565-0.257 1.155-0.449 1.771-0.578 0.641-0.154 1.296-0.231 1.963-0.231 0.667-0.026 1.283 0.038 1.848 0.193 0.129 0.051 0.206 0.026 0.232-0.077 0.025-0.128 0.089-0.193 0.192-0.193 1.283 0.154 2.426 0.411 3.427 0.77 1.026 0.359 1.899 0.86 2.618 1.502 0.487 0.77 0.95 1.604 1.385 2.503 0.437 0.873 0.77 1.797 1.001 2.772 0.257 0.95 0.373 1.938 0.347 2.965-0.026 1.027-0.245 2.054-0.655 3.080-0.898 1.13-1.99 2.041-3.273 2.734-1.283 0.667-2.67 1.232-4.159 1.694-1.463 0.436-2.99 0.796-4.582 1.078-1.566 0.282-3.093 0.59-4.582 0.924 0.025 0.693 0.025 1.438 0 2.233-0.026 0.77-0.115 1.553-0.27 2.349-0.128 0.77-0.334 1.527-0.616 2.272-0.257 0.744-0.616 1.438-1.078 2.079-0.514-0.026-1.053 0.026-1.617 0.154-0.539 0.128-1.027 0.257-1.464 0.385-0.205-0.128-0.41-0.257-0.616-0.385-0.179-0.103-0.41-0.167-0.693-0.192 0.077-0.308 0-0.629-0.231-0.963-0.206-0.334-0.424-0.654-0.655-0.963-0.206-0.334-0.346-0.654-0.424-0.963-0.051-0.334 0.103-0.629 0.463-0.886-0.206-0.18-0.309-0.462-0.309-0.847 0.103 0.103 0.231 0.154 0.385 0.154-0.051-0.462 0-1.014 0.154-1.656 0.179-0.642 0.32-1.271 0.423-1.887 0.129-0.642 0.154-1.219 0.078-1.733-0.078-0.539-0.385-0.924-0.925-1.155zM124.887 9.846c-0.103 0.282-0.193 0.539-0.27 0.77-0.051 0.205-0.115 0.398-0.192 0.578-0.078 0.18-0.167 0.359-0.27 0.539-0.078 0.18-0.167 0.385-0.27 0.616 0.051 0.154 0.154 0.27 0.307 0.347 0.154 0.077 0.257 0.193 0.309 0.347 0.359-0.18 0.719-0.308 1.078-0.385 0.36-0.103 0.719-0.18 1.079-0.231 0.359-0.051 0.719-0.116 1.078-0.193s0.731-0.205 1.117-0.385c0.385-0.18 0.783-0.321 1.194-0.424 0.435-0.128 0.859-0.257 1.27-0.385 0.411-0.128 0.809-0.27 1.194-0.424 0.385-0.18 0.719-0.411 1.001-0.693-0.36-0.334-0.898-0.629-1.617-0.886s-1.502-0.411-2.349-0.462c-0.822-0.077-1.656-0.026-2.503 0.154-0.822 0.18-1.541 0.552-2.157 1.117z"></path>
<path fill="#303030" style="fill: var(--color3, #303030)" d="M159.849 8.036c0.025 0.18 0.025 0.321 0 0.424 0 0.077-0.014 0.154-0.039 0.231 0 0.077 0 0.167 0 0.27 0 0.077 0.025 0.205 0.077 0.385-0.538 0.873-1.168 1.476-1.887 1.81-0.693 0.308-1.45 0.539-2.271 0.693-0.822 0.128-1.669 0.27-2.542 0.424-0.847 0.154-1.694 0.488-2.542 1.001-0.334-0.128-0.641-0.128-0.923 0-0.257 0.128-0.642 0.167-1.155 0.115-0.154 0.154-0.346 0.27-0.577 0.347-0.231 0.051-0.463 0.115-0.694 0.192 0.103 0.231 0.142 0.475 0.115 0.732 0 0.231 0.039 0.424 0.115 0.578 0.899 0.077 1.887 0.064 2.966-0.039 1.103-0.103 2.182-0.167 3.234-0.192 0.025 0.128 0.013 0.218-0.039 0.27-0.051 0.026-0.064 0.090-0.039 0.193 0.181 0.128 0.36 0.295 0.539 0.501 0.179 0.18 0.359 0.359 0.539 0.539 0.179 0.18 0.359 0.334 0.538 0.462 0.206 0.103 0.437 0.141 0.694 0.116 0.103 0.205 0.167 0.436 0.192 0.693 0.051 0.231 0.026 0.475-0.077 0.732-0.41 0.282-0.822 0.578-1.232 0.886-0.411 0.282-0.847 0.539-1.31 0.77-0.437 0.231-0.911 0.424-1.424 0.578-0.488 0.128-1.040 0.18-1.656 0.154-0.128 0-0.231 0-0.309 0-0.050 0-0.128-0.038-0.231-0.116-0.205 0.128-0.501 0.167-0.886 0.116-0.359-0.051-0.641-0.013-0.847 0.115-0.282-0.128-0.629-0.18-1.039-0.154-0.385 0-0.733-0.051-1.040-0.154-0.411 0.539-0.783 1.117-1.117 1.733s-0.63 1.271-0.886 1.964c0.873 0.128 1.591 0.18 2.157 0.154 0.59-0.026 1.142-0.064 1.655-0.116 0.514-0.077 1.040-0.141 1.579-0.193 0.538-0.077 1.219-0.103 2.040-0.077 0.514-0.282 1.117-0.462 1.81-0.539 0.719-0.103 1.373-0.257 1.963-0.462 0.206 0.077 0.385 0.218 0.539 0.424 0.154 0.18 0.295 0.359 0.423 0.539 0.154 0.154 0.309 0.295 0.463 0.424 0.153 0.128 0.346 0.18 0.577 0.154 0.103 0.103 0.167 0.231 0.192 0.385 0.051 0.128 0.090 0.257 0.117 0.385 0.025 0.128 0.064 0.244 0.115 0.347 0.077 0.077 0.192 0.103 0.346 0.077-0.385 0.847-0.834 1.502-1.347 1.964-0.488 0.436-1.053 0.77-1.695 1.001-0.641 0.231-1.36 0.411-2.155 0.539-0.77 0.128-1.631 0.282-2.581 0.462-0.231 0.051-0.423 0.038-0.577-0.038-0.154-0.051-0.334-0.077-0.539-0.077-0.59 0.128-1.296 0.244-2.118 0.346s-1.656 0.141-2.503 0.116c-0.847-0.026-1.656-0.141-2.425-0.346-0.77-0.18-1.399-0.514-1.887-1.001-0.206-0.18-0.346-0.385-0.424-0.616-0.051-0.257-0.218-0.449-0.501-0.578-0.025-0.334-0.077-0.706-0.154-1.117-0.077-0.411-0.153-0.834-0.231-1.271-0.077-0.462-0.141-0.911-0.192-1.348-0.026-0.436 0-0.834 0.077-1.194 0.078-0.385 0.231-0.732 0.462-1.040 0.257-0.308 0.347-0.642 0.27-1.001 0.129-0.026 0.206-0.090 0.231-0.192 0.026-0.128 0.129-0.18 0.309-0.154 0.154-0.462 0.321-0.898 0.501-1.309s0.359-0.809 0.539-1.194c0.205-0.385 0.398-0.77 0.577-1.155 0.206-0.411 0.398-0.86 0.577-1.348-0.359-0.334-0.629-0.693-0.808-1.078-0.154-0.411-0.27-0.809-0.346-1.194-0.078-0.411-0.142-0.821-0.193-1.232-0.051-0.436-0.141-0.873-0.27-1.309 0.257-0.385 0.565-0.693 0.925-0.924 0.385-0.257 0.795-0.462 1.232-0.616s0.911-0.282 1.425-0.385c0.513-0.103 1.053-0.218 1.617-0.347 1.026-0.334 1.937-0.59 2.734-0.77 0.822-0.18 1.617-0.321 2.387-0.424 0.795-0.128 1.617-0.244 2.464-0.347s1.809-0.257 2.888-0.462c0.231 0.231 0.449 0.347 0.655 0.347 0.102-0.231 0.217-0.295 0.346-0.193 0.153 0.077 0.218 0 0.192-0.231 0.257 0.436 0.578 0.809 0.962 1.117 0.411 0.282 0.861 0.526 1.349 0.732z"></path>
<path fill="#303030" style="fill: var(--color3, #303030)" d="M180.833 11.194c-0.641 0-1.334 0.051-2.079 0.154-0.744 0.077-1.475 0.167-2.194 0.27-0.513 0.077-1.014 0.141-1.502 0.193-0.463 0.051-0.886 0.090-1.271 0.116-0.179 0.565-0.359 1.065-0.539 1.502-0.179 0.436-0.371 0.86-0.577 1.271-0.206 0.436-0.398 0.886-0.577 1.348-0.154 0.436-0.309 0.911-0.463 1.425-0.256 0.411-0.474 0.796-0.655 1.155-0.153 0.334-0.282 0.719-0.384 1.155-0.309 0.385-0.539 0.796-0.694 1.232-0.154 0.411-0.27 0.77-0.346 1.078l-0.154 0.462c-0.154 0.154-0.243 0.282-0.27 0.385-0.025 0.077-0.089 0.154-0.192 0.231-0.026 0.282-0.115 0.565-0.27 0.847-0.051 0.128-0.090 0.257-0.115 0.385-0.026 0.103-0.039 0.18-0.039 0.231 0 0.257-0.064 0.424-0.192 0.501 0.025 0.128 0.025 0.27 0 0.424-0.026 0.128-0.051 0.257-0.078 0.385-0.077 0.308-0.102 0.552-0.077 0.732 0.077 0.103 0.142 0.192 0.192 0.27 0.078 0.077 0.129 0.18 0.154 0.308 0.154 0.103 0.27 0.167 0.346 0.192 0.103 0.077 0.257 0.167 0.463 0.27l0.346 0.385c0.128 0.744 0.013 1.335-0.346 1.771-0.385 0.488-1.040 0.732-1.963 0.732h-0.463c-0.128-0.128-0.205-0.231-0.231-0.308-0.206-0.077-0.373-0.141-0.501-0.193s-0.243-0.154-0.346-0.308c-0.334-0.154-0.603-0.282-0.809-0.385l-0.346-0.193c0-0.282 0-0.436 0-0.462-0.179-0.231-0.321-0.488-0.424-0.77-0.077-0.282-0.141-0.565-0.192-0.847-0.051-0.231-0.115-0.449-0.192-0.655-0.051-0.205-0.129-0.385-0.232-0.539-0.050-1.489 0.090-2.747 0.424-3.773s0.68-2.015 1.040-2.965c0.205-0.513 0.41-1.027 0.616-1.54 0.205-0.539 0.385-1.091 0.538-1.656l0.347-0.385c0.179-0.411 0.32-0.744 0.423-1.001 0.129-0.282 0.257-0.565 0.385-0.847 0.078-0.18 0.142-0.347 0.193-0.501 0.077-0.18 0.141-0.334 0.192-0.462-0.154 0-0.295 0.013-0.423 0.039-0.129 0-0.257 0.013-0.385 0.039-0.154 0.026-0.296 0.051-0.424 0.077-0.128 0-0.257 0-0.385 0-0.179 0-0.307-0.013-0.385-0.039-0.282 0.128-0.59 0.193-0.923 0.193h-0.385c-0.078 0-0.154 0-0.232 0-0.050-0.026-0.102-0.039-0.153-0.039-0.257 0-0.463 0.039-0.616 0.116-0.309 0-0.603 0-0.886 0h-0.385c-0.051 0-0.115 0.013-0.193 0.039-0.077 0-0.141 0-0.192 0-0.179 0-0.373-0.013-0.577-0.039-0.206-0.051-0.424-0.141-0.655-0.27-0.309-0.411-0.513-0.629-0.616-0.655l-0.346-0.462c-0.026-0.154-0.065-0.295-0.117-0.424-0.050-0.154-0.102-0.321-0.153-0.501-0.103-0.257-0.206-0.526-0.309-0.809-0.077-0.308-0.115-0.667-0.115-1.078 0.026-0.205 0.077-0.359 0.154-0.462 0.077-0.103 0.141-0.193 0.192-0.27l0.115-0.578 0.501 0.038h1.079c0.821 0 1.655-0.026 2.503-0.077 0.847-0.077 1.72-0.154 2.618-0.231 0.513-0.051 1.026-0.103 1.539-0.154 0.539-0.051 1.091-0.103 1.656-0.154 0.103-0.231 0.206-0.449 0.309-0.655l0.385-0.193c0.462-0.026 0.783 0.038 0.962 0.193 0.205 0.128 0.371 0.257 0.501 0.385 0.565-0.051 1.129-0.103 1.694-0.154 0.591-0.077 1.181-0.167 1.771-0.27 0.873-0.128 1.745-0.244 2.618-0.347 0.898-0.103 1.759-0.154 2.579-0.154 0.36 0 0.706 0.013 1.040 0.038s0.642 0.064 0.925 0.116l0.385 0.27c0.077 0.154 0.179 0.295 0.307 0.424 0.154 0.128 0.309 0.257 0.462 0.385 0.309 0.282 0.616 0.616 0.925 1.001 0.307 0.385 0.424 0.95 0.346 1.694-0.206 0.308-0.359 0.488-0.462 0.539l-0.346 0.462-0.385-0.039c-0.154 0-0.296 0.026-0.424 0.077-0.128 0.026-0.256 0.064-0.385 0.116-0.103 0.051-0.205 0.103-0.307 0.154-0.103 0.026-0.218 0.051-0.347 0.077-0.231 0-0.423 0-0.577 0-0.128-0.026-0.27-0.039-0.424-0.039z"></path>
<path fill="#ffc107" style="fill: var(--color2, #ffc107)" d="M34.8 12.551c2.181 1.017 4.898-0.177 6.057-2.662l0.059-0.127c1.124-2.408 1.787-3.829-0.357-4.829-0.516-0.229-1.091-0.415-1.689-0.546l-0.026-0.026-0.057 0.008c-2.305-0.48-4.93-0.123-5.841 1.83-1.159 2.485-0.327 5.334 1.854 6.351zM34.329 7.441c0.674-0.295 1.608-0.461 2.8-0.222 1.026 0.205 1.86 0.188 2.503 0.072 0.046 0.597-0.066 1.244-0.354 1.862-0.753 1.614-2.432 2.431-3.743 1.82-1.175-0.548-1.661-2.061-1.206-3.532z"></path>
<path fill="#ffc107" style="fill: var(--color2, #ffc107)" d="M29.353 11.661c-0.767 0.784-1.753 1.176-2.778 1.105-0.332-0.023-1.070-0.391-1.543-0.627-0.122-0.061-0.226-0.113-0.301-0.148-1.433-0.668-1.724-1.855-1.596-3.715 0.163-2.335 1.969-4.118 4.026-3.975 0.963 0.066 1.478 0.766 2.078 1.583l0.001 0.001c0.037 0.051 0.075 0.102 0.113 0.153 0.060 0.082 0.122 0.163 0.183 0.245 0.567 0.755 1.135 1.511 1.067 2.508-0.076 1.105-0.52 2.124-1.25 2.87zM27.041 6.039c-1.1-0.076-2.073 0.981-2.169 2.358-0.094 1.376 0.725 2.557 1.824 2.632 0.506 0.035 1.008-0.173 1.412-0.585 0.441-0.45 0.709-1.079 0.757-1.772s-0.133-1.352-0.507-1.859c-0.208-0.282-0.462-0.494-0.743-0.625-0.182-0.085-0.375-0.136-0.574-0.149z"></path>
<path fill="#ffc107" style="fill: var(--color2, #ffc107)" d="M36.605 14.264c-2.245-1.047-4.836-0.881-6.929 0.445l-5.044 3.194c-0.837 0.53-1.468 1.299-1.824 2.223s-0.404 1.918-0.139 2.872c0.265 0.955 0.819 1.781 1.601 2.389s1.719 0.942 2.71 0.963l0.065 0.001c2.485 0.073 4.846 1.184 6.487 3.054 0.423 0.482 0.932 0.864 1.501 1.129 0.309 0.144 0.637 0.254 0.978 0.328 0.969 0.208 1.958 0.102 2.86-0.309s1.632-1.086 2.111-1.953c0.48-0.867 0.663-1.844 0.531-2.826l-0.796-5.917c-0.33-2.456-1.868-4.547-4.113-5.594zM39.668 25.121c-2.739-1.088-6.784-1.893-7.115 1.173-0.399-0.254-0.814-0.482-1.242-0.682-1.334-0.622-2.795-0.971-4.292-1.004l-0.043-0.001c-1.242-0.045-2.297-0.875-2.631-2.076-0.31-1.118 0.079-2.282 0.974-2.986 0.647-0.457 1.713-0.654 3.809 0.245 3.2 1.371 3.238-0.571 2.286-1.714 1.143 0 3.543-0.343 4-1.714 0.087-0.262 0.107-0.487 0.075-0.678 0.127 0.048 0.253 0.101 0.377 0.159 1.705 0.795 2.872 2.383 3.123 4.247l0.677 5.032z"></path>
<path fill="#ffc107" style="fill: var(--color2, #ffc107)" d="M43.389 17.546c-0.341-0.159-0.659-0.372-0.942-0.64-1.606-1.518-1.509-4.239 0.217-6.065 0.818-0.866 1.882-1.409 2.997-1.53 0.768-0.083 0.94 0.196 1.196 0.611 0.132 0.215 0.287 0.468 0.56 0.725 0.229 0.216 0.532 0.428 0.846 0.648 0.781 0.545 1.631 1.139 1.588 1.975-0.058 1.12-0.541 2.213-1.359 3.079-1.421 1.504-3.511 1.938-5.102 1.197zM45.849 11.043c-0.704 0.077-1.385 0.43-1.919 0.995-1.066 1.128-1.31 3.297-0.402 4.156 0.909 0.859 2.363 0.556 3.429-0.571 0.534-0.565 1.117-1.735 1.154-2.442 0.034-0.654-0.179-1.233-0.599-1.631s-1.011-0.578-1.662-0.507z"></path>
<path fill="#ffc107" style="fill: var(--color2, #ffc107)" d="M49.466 20.537c-1.229-1.889-3.423-1.862-5.479-0.746-2.055 1.117-2.662 2.878-1.678 4.69 0.359 0.661 0.915 1.157 1.578 1.466 1.154 0.538 2.63 0.509 3.938-0.2 2.055-1.117 2.624-3.397 1.641-5.209zM46.995 24.215c-1.214 0.658-2.628 0.404-3.154-0.566-0.385-0.71-0.188-1.611 0.421-2.301 1.232-0.21 2.791-0.402 3.808-0.335 0.063 0.077 0.12 0.161 0.168 0.251 0.525 0.969-0.033 2.293-1.243 2.951z"></path>
</symbol>
<symbol id="icon-Photo-default" viewBox="0 0 32 32">
<path fill="#54adff" style="fill: var(--color1, #54adff)" d="M7.033 0h17.934c3.884 0 7.033 3.149 7.033 7.033v17.934c0 3.884-3.149 7.033-7.033 7.033h-17.934c-3.884 0-7.033-3.149-7.033-7.033v-17.934c0-3.884 3.149-7.033 7.033-7.033z"></path>
<path fill="#9dcefc" style="fill: var(--color2, #9dcefc)" opacity="0.4" d="M28.277 31.174c-0.986 0.527-2.113 0.826-3.31 0.826h-17.934c-1.197 0-2.324-0.299-3.31-0.826-0.027-0.107-0.036-0.218-0.027-0.331 0.023-0.283 0.162-0.543 0.383-0.721 0.711-0.563 1.579-0.964 2.515-1.163l4.495-0.901c0.473-0.092 0.815-0.514 0.815-1.003v-1.030c-0.283-0.395-0.552-0.918-0.835-1.467l-0.017-0.034c-0.225-0.438-0.567-1.101-0.719-1.257-0.926-0.925-1.804-1.953-2.075-3.277-0.256-1.245 0.004-1.9 0.268-2.416l0.027-0.739c-0.029-1.228-0.063-2.757 0.281-3.689 1.11-3.058 4.426-4.774 7.123-4.884 1.288 0.023 2.367 0.311 3.459 0.901 0.123 0.066 0.457 0.123 0.698 0.164 0.616 0.104 1.382 0.235 1.903 0.798 0.737 0.794 1.030 1.701 1.067 3.314 0.309 1.191 0.35 2.829 0.35 4.137 0.293 0.524 0.543 1.175 0.289 2.416-0.272 1.322-1.151 2.348-2.060 3.261-0.166 0.17-0.5 0.827-0.721 1.263-0.285 0.563-0.557 1.101-0.846 1.507v1.030c0 0.491 0.34 0.913 0.811 1.003l4.491 0.901c0.942 0.196 1.81 0.602 2.523 1.165 0.221 0.176 0.36 0.436 0.383 0.719 0.010 0.113 0 0.225-0.027 0.333z"></path>
</symbol>
</defs>
</svg>
